<?xml version="1.0" standalone="no"?>
<!DOCTYPE svg PUBLIC "-//W3C//DTD SVG 20010904//EN"
 "http://www.w3.org/TR/2001/REC-SVG-20010904/DTD/svg10.dtd">
<svg version="1.0" xmlns="http://www.w3.org/2000/svg"
 width="1250.000000pt" height="1250.000000pt" viewBox="0 0 1250.000000 1250.000000"
 preserveAspectRatio="xMidYMid meet">
<metadata>
Created by potrace 1.11, written by Peter Selinger 2001-2013
</metadata>
<g transform="translate(0.000000,1250.000000) scale(0.100000,-0.100000)"
fill="#000000" stroke="none">
<path d="M3778 9646 c-1 -2 -46 -6 -99 -10 -53 -4 -107 -9 -120 -11 -13 -2
-60 -9 -104 -15 -377 -53 -822 -208 -1175 -410 -564 -324 -1056 -843 -1344
-1420 -32 -63 -62 -123 -67 -132 -63 -121 -193 -517 -225 -683 -2 -11 -8 -42
-14 -70 -18 -90 -28 -160 -46 -295 -3 -25 -7 -162 -9 -305 -4 -242 1 -342 29
-551 32 -232 138 -603 232 -812 13 -29 24 -55 24 -58 0 -4 29 -64 65 -135 202
-402 466 -744 796 -1033 125 -109 125 -109 214 -177 64 -49 267 -184 325 -216
93 -52 157 -87 180 -98 14 -7 43 -22 65 -33 236 -119 639 -245 920 -287 61 -9
121 -18 135 -21 120 -19 539 -26 695 -11 111 11 251 30 340 47 91 17 99 19
195 43 480 122 936 351 1311 658 l66 54 -68 110 c-38 61 -72 117 -76 125 -4 9
-66 110 -136 225 -71 116 -132 217 -137 225 -5 8 -38 62 -73 120 -35 58 -94
156 -131 218 -37 61 -71 112 -75 112 -4 0 -38 -29 -76 -65 -299 -285 -665
-469 -1075 -540 -153 -27 -381 -36 -548 -21 -68 6 -264 38 -307 50 -5 1 -30 8
-55 15 -417 116 -802 370 -1077 711 -210 261 -372 611 -424 914 -5 33 -12 62
-14 66 -16 27 -25 394 -12 525 24 243 87 465 196 690 205 424 519 745 942 962
106 55 309 137 361 147 13 2 59 13 103 24 287 72 622 74 938 6 81 -18 86 -19
107 -26 8 -3 35 -11 60 -18 119 -32 330 -128 466 -211 100 -61 237 -166 333
-257 l84 -80 125 207 c69 113 136 224 149 246 13 22 48 80 78 128 30 48 55 92
55 97 0 4 3 10 8 12 4 2 15 17 24 33 10 17 64 105 120 198 147 239 138 213 92
256 -146 136 -458 338 -697 450 -366 174 -666 257 -1142 316 -52 7 -500 16
-507 11z"/>
<path d="M6884 8775 l0 -632 925 -1 c509 0 936 -1 949 -1 l22 -1 0 -2523 0
-2523 628 0 627 1 5 2524 5 2524 943 0 942 0 0 21 c1 35 1 1106 1 1177 l-1 65
-2523 0 -2524 0 1 -631z"/>
</g>
</svg>
